<svg width="40" height="41" viewBox="0 0 40 41" fill="none" xmlns="http://www.w3.org/2000/svg">
<g id="behance" clip-path="url(#clip0_1_33)">
<path id="Vector" d="M34.1406 0.668457H5.85938C2.62848 0.668457 0 3.29694 0 6.52783V34.8091C0 38.04 2.62848 40.6685 5.85938 40.6685H34.1406C37.3715 40.6685 40 38.04 40 34.8091V6.52783C40 3.29694 37.3715 0.668457 34.1406 0.668457ZM37.6562 34.8091C37.6562 36.7476 36.0791 38.3247 34.1406 38.3247H5.85938C3.9209 38.3247 2.34375 36.7476 2.34375 34.8091V6.52783C2.34375 4.58936 3.9209 3.01221 5.85938 3.01221H34.1406C36.0791 3.01221 37.6562 4.58936 37.6562 6.52783V34.8091Z" fill="#070707" stroke="#070707" stroke-width="0.5"/>
<path id="Vector_2" d="M18.8281 17.1528C18.8281 14.568 16.7255 12.4653 14.1406 12.4653H7.10938V28.8716H14.1406C16.7255 28.8716 18.8281 26.7689 18.8281 24.1841C18.8281 22.7852 18.2114 21.5281 17.236 20.6685C18.2114 19.8088 18.8281 18.5518 18.8281 17.1528ZM16.4844 24.1841C16.4844 25.4765 15.433 26.5278 14.1406 26.5278H9.45312V21.8403H14.1406C15.433 21.8403 16.4844 22.8917 16.4844 24.1841ZM9.45312 19.4966V14.8091H14.1406C15.433 14.8091 16.4844 15.8604 16.4844 17.1528C16.4844 18.4453 15.433 19.4966 14.1406 19.4966H9.45312Z" fill="#070707" stroke="#070707" stroke-width="0.5"/>
<path id="Vector_3" d="M27.0313 17.1528C23.8004 17.1528 21.1719 19.7813 21.1719 23.0122C21.1719 26.2431 23.8004 28.8716 27.0313 28.8716C29.1165 28.8716 31.0611 27.7495 32.106 25.9428L30.0772 24.7691C29.4498 25.854 28.2825 26.5278 27.0313 26.5278C25.5032 26.5278 24.2001 25.5482 23.7164 24.1841H32.8906V23.0122C32.8906 19.7813 30.2621 17.1528 27.0313 17.1528ZM23.7164 21.8403C24.2001 20.4762 25.5032 19.4966 27.0313 19.4966C28.5593 19.4966 29.8624 20.4762 30.3461 21.8403H23.7164Z" fill="#070707" stroke="#070707" stroke-width="0.5"/>
<path id="Vector_4" d="M22.3438 12.4653H31.7188V14.8091H22.3438V12.4653Z" fill="#070707" stroke="#070707" stroke-width="0.5"/>
</g>
<defs>
<clipPath id="clip0_1_33">
<rect width="40" height="40" fill="white" transform="translate(0 0.668457)"/>
</clipPath>
</defs>
</svg>
