<svg width="40" height="41" viewBox="0 0 40 41" fill="none" xmlns="http://www.w3.org/2000/svg">
<g id="surface1 7">
<path id="Vector" d="M30.9743 7.79144L31.2912 7.40209L30.9006 7.08677C27.9205 4.68099 24.1373 3.24523 20 3.24523C18.5506 3.24523 17.1451 3.44376 15.814 3.76912L15.073 3.95023L15.5347 4.55743C16.957 6.42835 19.0002 9.25386 21.4471 13.679L21.6537 14.0528L22.0552 13.9071C26.6822 12.2273 29.4556 9.65755 30.9743 7.79144ZM13.2795 5.02505L13.0359 4.71129L12.6752 4.87765C8.08123 6.99633 4.59636 11.0453 3.22019 15.9953L3.04947 16.6094L3.68655 16.629C6.21743 16.7069 12.2683 16.5903 18.9728 14.8342L19.602 14.6694L19.281 14.1037C16.6795 9.51985 14.4917 6.58628 13.2795 5.02505ZM33.177 9.28412L32.7929 8.83799L32.4148 9.28918C30.721 11.3105 27.7789 13.9374 23.1194 15.7199L22.6031 15.9175L22.8513 16.4114C23.8551 18.4094 24.8289 20.5386 25.7162 22.8378L25.8604 23.2114L26.2565 23.1523C29.6266 22.6492 32.7418 22.6491 35.0951 22.8293C35.6679 22.8758 36.0376 22.928 36.4673 22.9886C36.5577 23.0014 36.6508 23.0145 36.749 23.0281L37.2584 23.0984L37.3143 22.5871C37.3834 21.9562 37.4231 21.3226 37.4231 20.6675C37.4231 16.3107 35.8085 12.3408 33.177 9.28412ZM20.7531 16.9116L20.5675 16.5477L20.1739 16.6571C12.2818 18.8492 5.32954 18.7823 3.16395 18.6968L2.68337 18.6778L2.64576 19.1573L2.64311 19.1911C2.60572 19.6675 2.56731 20.1569 2.56731 20.6771C2.56731 25.9149 4.88522 30.5879 8.53607 33.7835L8.90423 34.1057L9.23439 33.7446C10.15 32.7433 11.378 31.4678 12.8712 30.1364L12.8732 30.1346C15.6819 27.6031 19.2978 24.9224 23.2385 23.7524L23.7636 23.5965L23.5605 23.0878C22.6792 20.8798 21.7304 18.8275 20.7531 16.9116ZM30.4721 24.8118L30.4721 24.8118L30.4668 24.812C29.4333 24.8608 28.333 24.9582 27.2142 25.1041L26.6133 25.1825L26.8043 25.7576C27.749 28.6011 28.5305 31.6131 29.0352 34.7463L29.1603 35.5226L29.8102 35.0801C33.0667 32.8631 35.5323 29.5666 36.6813 25.6941L36.8514 25.1205L36.2568 25.0549C34.764 24.8901 32.8717 24.724 30.4721 24.8118ZM24.6744 25.9939L24.5196 25.5474L24.0651 25.6767C20.6108 26.6593 16.9951 29.2086 14.2535 31.669C12.9289 32.8475 11.8591 33.9661 11.0005 34.8826L10.5736 35.3382L11.1115 35.6552C13.713 37.1884 16.7328 38.0897 19.9904 38.0897C22.4353 38.0897 24.7417 37.5847 26.8484 36.6946L27.2018 36.5453L27.1491 36.1654C26.6537 32.5908 25.7798 29.184 24.6744 25.9939ZM0.5 20.6675C0.5 9.92495 9.25689 1.16846 20 1.16846C30.7431 1.16846 39.5 9.92495 39.5 20.6675C39.5 31.41 30.7431 40.1665 20 40.1665C9.25689 40.1665 0.5 31.41 0.5 20.6675Z" fill="#070707" stroke="#070707"/>
</g>
</svg>
