<svg width="40" height="41" viewBox="0 0 40 41" fill="none" xmlns="http://www.w3.org/2000/svg">
<path d="M11.6154 1.17807H12.1154V1.16846H28.3942C34.5119 1.16846 39.5 6.16384 39.5 12.2805V29.0545C39.5 35.1714 34.5116 40.1665 28.4038 40.1665H11.6154C5.49635 40.1665 0.5 35.1794 0.5 29.0737V12.2901C0.5 6.17399 5.49716 1.17807 11.6154 1.17807ZM2.57692 12.2987V12.2997V29.0833C2.57692 34.0801 6.59973 38.1001 11.6154 38.1001H28.4038C33.4017 38.1001 37.4231 34.0786 37.4231 29.0641V12.2901C37.4231 7.27517 33.4014 3.25411 28.3942 3.25411H11.6154C6.60769 3.25411 2.5871 7.2755 2.57692 12.2987ZM31.2788 8.36816C31.2788 7.78891 31.7375 7.33014 32.3173 7.33014C32.8971 7.33014 33.3558 7.78891 33.3558 8.36816C33.3558 8.9474 32.8971 9.40617 32.3173 9.40617C31.7375 9.40617 31.2788 8.9474 31.2788 8.36816ZM9.74039 20.6723C9.74039 15.0272 14.3625 10.4062 20.0096 10.4062C25.6567 10.4062 30.2788 15.0272 30.2788 20.6723C30.2788 26.3174 25.6567 30.9384 20.0096 30.9384C14.3625 30.9384 9.74039 26.3174 9.74039 20.6723ZM28.2019 20.6723C28.2019 16.128 24.5549 12.4822 20.0096 12.4822C15.4644 12.4822 11.8173 16.128 11.8173 20.6723C11.8173 25.2166 15.4644 28.8624 20.0096 28.8624C24.5549 28.8624 28.2019 25.2166 28.2019 20.6723Z" fill="#070707" stroke="#070707"/>
</svg>
